# xmcd
#
# Track frame offsets:
#	150
#	16594
#	31763
#	49241
#	62100
#	79745
#	95274
#	108403
#	124937
#	140691
#	152935
#	168464
#	187788
#	202492
#	216371
#	231975
#	244279
#
# Disc length: 3494 seconds
#
# Revision: 1
# Processed by: cddbd v1.5.2PL0 Copyright (c) Steve Scherf et al.
# Submitted via: audiograbber 1.83.01
#
DISCID=f20da411
DTITLE=Luan Santana - Ao vivo
DYEAR=2009
DGENRE=Sertanajo
TTITLE0=Meteoro
TTITLE1=Você não sabe o que é amor
TTITLE2=Sinais
TTITLE3=Tô de cara
TTITLE4=Pouti Porri - Aqui é seu lugar - Digitais
TTITLE5=Minha boca você não beija mais
TTITLE6=Jogo do amor
TTITLE7=Vou voar
TTITLE8=Sempre com você
TTITLE9=Eu tô jogando verde
TTITLE10=Sobrenatural
TTITLE11=Apaixonado - A loira do carro branco
TTITLE12=Pra você lembrar de mim
TTITLE13=Você do meu lado
TTITLE14=A louca
TTITLE15=Chocolate
TTITLE16=Amigos pela fé
EXTD=
EXTT0=
EXTT1=
EXTT2=
EXTT3=
EXTT4=
EXTT5=
EXTT6=
EXTT7=
EXTT8=
EXTT9=
EXTT10=
EXTT11=
EXTT12=
EXTT13=
EXTT14=
EXTT15=
EXTT16=
PLAYORDER=
